<svg version="1.2" xmlns="http://www.w3.org/2000/svg" viewBox="0 0 258 302" width="258" height="302"><style>.a{fill:#fff9c8}.b{fill:#1a1a18}</style><path fill-rule="evenodd" class="a" d="m250.6 15.2c0-4.4-4-7.9-8.9-7.9h-225.1c-4.8 0-8.9 3.6-8.9 7.9v270.9c0 4.4 4.1 8.1 8.9 8.1h225.1c4.9 0 8.9-3.6 8.9-8.1z"/><path class="b" d="m241.7 301.6h-225.1c-8.9 0-16.2-6.9-16.2-15.4v-271c0-8.3 7.4-15.2 16.2-15.2h225.1c8.9 0 16.2 6.8 16.2 15.2v270.9c0 8.6-7.3 15.5-16.2 15.5zm-225.1-294.3c-4.8 0-8.9 3.6-8.9 7.9v270.9c0 4.4 4.1 8.1 8.9 8.1h225.1c4.9 0 8.9-3.6 8.9-8.1v-270.9c0-4.4-4-7.9-8.9-7.9z"/><path class="b" d="m48.3 32.8v11.6h-7.1v58.8h-6.5v-58.8h-7.1v-11.6z"/><path class="b" d="m51.1 32.8h12.1c5.4 0 8.6 6.1 8.6 18.1 0 9.4-1.7 15.7-5.4 17.4v0.2c4.4 1.3 5.1 6.6 5.2 21.5 0 7.4 0.2 11.2 1.5 12.6v0.6h-7.1c-0.6-2-0.8-4.6-0.8-7.4l-0.2-13.5c-0.1-5.5-1.2-8.9-3.9-8.9h-3.5v29.8h-6.5zm6.5 30.8h2.7c3.1 0 4.9-3 4.9-10.6 0-6.5-1.6-9.8-4.5-9.8h-3.1z"/><path class="b" d="m82.6 32.8h8.1l8.6 70.4h-6.8l-1.5-14.9h-8.6l-1.5 14.9h-6.9zm0.9 43.9h6.4l-3.1-31.6h-0.1z"/><path class="b" d="m109 32.8l7.9 48.2h0.1v-48.2h6v70.4h-7.4l-8-49.3h-0.1v49.3h-6v-70.4z"/><path class="b" d="m132.8 81.2v2.1c0 6.6 0.9 10.8 4.3 10.8 2 0 3.9-2.8 3.9-8.7 0-6.4-1.5-8.8-5.8-12-5.8-4.3-8.5-9.6-8.5-21.3 0-13.7 3.9-20.7 10-20.7 5.8 0 10 5.4 10 18.9v2h-6.3c0-6.6-1-10.5-3.5-10.5-2.9 0-3.7 4-3.7 8.2 0 4.3 0.6 7 3.4 9.6l5 4.7c4.9 4.6 6.2 10.1 6.2 18.6 0 14.9-4.2 21.6-11.3 21.6-7.4 0-10.3-7.5-10.3-20.5v-2.9h6.6z"/><path class="b" d="m151.1 103.2v-70.4h6.5v58.8h11.6v11.6z"/><path class="b" d="m172.4 103.2v-70.4h6.5v70.4z"/><path class="b" d="m191.3 32.8l7.9 48.2h0.1v-48.2h6v70.4h-7.4l-8-49.3h-0.1v49.3h-6v-70.4z"/><path class="b" d="m227.9 32.8v11.6h-11.6v16.6h10.9v11.6h-10.9v18.9h12v11.6h-18.6v-70.4h18.2z"/><path class="b" d="m61.4 170.7l-1.5-7.3h-7.6l-1.5 7.3h-2.5l6.4-28.5h3.1l6.3 28.5zm-8.6-10.2h6.4l-3.2-15.3z"/><path class="b" d="m72 142.2v28.5h-2.5v-28.5z"/><path class="b" d="m86 158.4h-3.3v12.3h-2.5v-28.5h5.1c2.4 0 4.2 0.7 5.5 2 1.2 1.4 1.9 3.3 1.9 6 0 2-0.4 3.6-1.1 4.8-0.7 1.2-1.8 2.2-3.2 2.8l5.3 12.9h-2.9zm-0.3-2.7c1.5 0 2.6-0.4 3.3-1.3 0.8-0.9 1.1-2.3 1.1-4.2 0-1.8-0.4-3.1-1.1-3.9q-1.2-1.2-3.6-1.2h-2.6v10.6z"/><path class="b" d="m126.7 142.4q1.2 0.6 2.4 2.1l-1.3 2.3c-0.6-0.7-1.2-1.2-1.9-1.6-0.6-0.3-1.3-0.5-2-0.5-1.7 0-3.1 0.9-4.1 2.8-1 1.9-1.5 4.8-1.5 9 0 3.9 0.5 6.9 1.5 8.8 1 1.9 2.4 2.9 4.1 2.9 0.9 0 1.6-0.2 2.2-0.6 0.6-0.4 1.3-1 2-1.8l1.2 2.3c-0.6 0.9-1.4 1.7-2.3 2.3-0.9 0.6-2 0.9-3.2 0.9-1.6 0-3-0.6-4.2-1.7-1.2-1.1-2.2-2.8-2.9-5-0.7-2.2-1-4.9-1-8 0-3.1 0.4-5.8 1.1-8 0.7-2.2 1.7-3.9 2.9-5 1.2-1.1 2.6-1.7 4.1-1.7 1.2-0.2 2.1 0 2.9 0.5z"/><path class="b" d="m145.8 170.7l-1.5-7.3h-7.6l-1.5 7.3h-2.5l6.4-28.5h3.1l6.3 28.5zm-8.5-10.2h6.4l-3.2-15.3z"/><path class="b" d="m159.8 158.4h-3.3v12.3h-2.5v-28.5h5.1c2.4 0 4.2 0.7 5.5 2 1.2 1.4 1.9 3.3 1.9 6 0 2-0.4 3.6-1.1 4.8-0.7 1.2-1.8 2.2-3.2 2.8l5.3 12.9h-2.9zm-0.4-2.7c1.5 0 2.6-0.4 3.3-1.3 0.8-0.9 1.1-2.3 1.1-4.2 0-1.8-0.4-3.1-1.1-3.9q-1.2-1.2-3.6-1.2h-2.6v10.6z"/><path class="b" d="m183.7 142.5c0.9 0.5 1.8 1.3 2.6 2.3l-1.5 2.2c-0.7-0.8-1.4-1.4-2-1.8-0.7-0.4-1.4-0.5-2.3-0.5-1 0-2 0.4-2.9 1.2-0.9 0.8-1.6 2.1-2.1 3.8-0.5 1.7-0.8 4-0.8 6.7 0 4.1 0.5 7 1.4 8.9 0.9 1.9 2.3 2.9 4.2 2.9 1.4 0 2.7-0.4 3.8-1.3v-8.9h-3.6l-0.3-2.9h6.3v13.7c-2 1.7-4.1 2.5-6.3 2.5-2.6 0-4.6-1.3-6-3.8-1.4-2.5-2.2-6.2-2.2-11 0-3.1 0.4-5.7 1.2-8 0.8-2.2 1.8-3.9 3.1-5 1.3-1.1 2.7-1.7 4.2-1.7 1.2-0.1 2.3 0.2 3.2 0.7z"/><path class="b" d="m205 143.4c1.2 1.1 2.2 2.8 2.9 5 0.7 2.2 1 4.9 1 8 0 3.1-0.3 5.7-1 7.9-0.7 2.2-1.6 3.9-2.9 5-1.2 1.1-2.7 1.7-4.3 1.7-1.6 0-3.1-0.6-4.3-1.7-1.2-1.1-2.2-2.8-2.9-5-0.7-2.2-1-4.8-1-8 0-3.1 0.3-5.7 1-7.9 0.7-2.2 1.6-3.9 2.9-5.1 1.2-1.2 2.7-1.8 4.3-1.8 1.6 0.2 3 0.8 4.3 1.9zm-8.5 4.2c-1 1.9-1.5 4.9-1.5 8.9 0 4 0.5 6.9 1.5 8.8 1 1.9 2.4 2.9 4.1 2.9 1.8 0 3.2-0.9 4.1-2.8 1-1.9 1.5-4.8 1.5-8.9 0-4-0.5-7-1.5-8.9-1-1.9-2.4-2.9-4.1-2.9-1.7 0-3.1 1-4.1 2.9z"/><path class="b" d="m58.2 191.8c0.9 0.5 1.8 1.4 2.6 2.5l-1.3 2.2c-0.7-0.9-1.5-1.5-2.2-1.9-0.7-0.4-1.5-0.6-2.3-0.6-1.1 0-2 0.4-2.6 1.1-0.7 0.7-1 1.8-1 3.1 0 0.9 0.1 1.6 0.4 2.2 0.2 0.6 0.7 1.1 1.3 1.6q0.9 0.8 2.7 1.5c1.2 0.6 2.3 1.1 3.1 1.8 0.8 0.6 1.5 1.5 2 2.6 0.5 1.1 0.7 2.5 0.7 4.2 0 1.7-0.3 3.1-0.8 4.4-0.6 1.3-1.3 2.3-2.4 3-1 0.7-2.3 1.1-3.7 1.1q-4.1 0-6.6-3.6l1.4-2.2c0.8 1 1.6 1.7 2.4 2.2 0.8 0.5 1.7 0.7 2.8 0.7 1.3 0 2.3-0.5 3.1-1.4q1.2-1.3 1.2-3.9c0-1-0.1-1.8-0.4-2.5-0.3-0.7-0.7-1.2-1.3-1.7-0.6-0.5-1.5-1-2.6-1.5-2-0.9-3.5-1.9-4.4-3.2-0.9-1.2-1.4-2.9-1.4-5 0-1.4 0.3-2.7 0.8-3.8 0.5-1.1 1.2-2 2.2-2.6 0.9-0.6 2-0.9 3.2-0.9 1.1-0.2 2.2 0.1 3.1 0.6z"/><path class="b" d="m82.7 191.5l-0.3 2.9h-7.7v9.6h6.7v2.9h-6.7v10.2h8.2v2.9h-10.7v-28.5z"/><path class="b" d="m99.6 207.8h-3.3v12.2h-2.5v-28.5h5.1c2.4 0 4.2 0.7 5.5 2 1.2 1.4 1.9 3.3 1.9 6 0 2-0.4 3.6-1.1 4.8-0.7 1.2-1.8 2.2-3.2 2.8l5.3 12.9h-2.9zm-0.3-2.8c1.5 0 2.6-0.4 3.3-1.3 0.8-0.9 1.1-2.3 1.1-4.2 0-1.8-0.4-3.1-1.1-3.9q-1.2-1.2-3.6-1.2h-2.6v10.6z"/><path class="b" d="m130.1 191.5l-6.3 28.5h-2.7l-6.4-28.5h2.7l5.1 24.6 5.1-24.6z"/><path class="b" d="m142.3 191.5v28.5h-2.5v-28.5z"/><path class="b" d="m164.5 191.7q1.2 0.6 2.4 2.1l-1.3 2.3c-0.6-0.7-1.2-1.2-1.9-1.6-0.6-0.3-1.3-0.5-2-0.5-1.7 0-3.1 0.9-4.1 2.8-1 1.9-1.5 4.8-1.5 9 0 3.9 0.5 6.9 1.5 8.8 1 1.9 2.4 2.9 4.1 2.9 0.9 0 1.6-0.2 2.2-0.6 0.6-0.4 1.3-1 2-1.8l1.2 2.3c-0.6 0.9-1.4 1.7-2.3 2.3-0.9 0.6-2 0.9-3.2 0.9-1.6 0-3-0.6-4.2-1.7-1.2-1.1-2.2-2.8-2.9-5-0.7-2.2-1-4.9-1-8 0-3.1 0.4-5.8 1.1-8 0.7-2.2 1.7-3.9 2.9-5 1.2-1.1 2.6-1.7 4.1-1.7 1.1-0.2 2.1 0.1 2.9 0.5z"/><path class="b" d="m187.7 191.5l-0.3 2.9h-7.7v9.6h6.7v2.9h-6.7v10.2h8.2v2.9h-10.7v-28.5z"/><path class="b" d="m206.8 191.8c0.9 0.5 1.8 1.4 2.6 2.5l-1.3 2.2c-0.7-0.9-1.5-1.5-2.2-1.9-0.7-0.4-1.5-0.6-2.3-0.6-1.1 0-2 0.4-2.6 1.1-0.6 0.7-1 1.8-1 3.1 0 0.9 0.1 1.6 0.4 2.2 0.2 0.6 0.7 1.1 1.3 1.6q0.9 0.8 2.7 1.5c1.2 0.6 2.3 1.1 3.1 1.8 0.8 0.6 1.5 1.5 2 2.6 0.5 1.1 0.7 2.5 0.7 4.2 0 1.7-0.3 3.1-0.8 4.4-0.6 1.3-1.3 2.3-2.4 3-1 0.7-2.3 1.1-3.7 1.1q-4 0-6.6-3.6l1.4-2.2c0.8 1 1.6 1.7 2.4 2.2 0.8 0.5 1.7 0.7 2.8 0.7 1.3 0 2.3-0.5 3.1-1.4q1.2-1.3 1.2-3.9c0-1-0.1-1.8-0.4-2.5-0.3-0.7-0.7-1.2-1.3-1.7-0.6-0.5-1.5-1-2.6-1.5-2-0.9-3.5-1.9-4.4-3.2-0.9-1.2-1.4-2.9-1.4-5 0-1.4 0.3-2.7 0.8-3.8 0.5-1.1 1.2-2 2.2-2.6 0.9-0.6 2-0.9 3.2-0.9 1-0.2 2.1 0.1 3.1 0.6z"/><path class="b" d="m62.2 243c1.3 1.4 2 3.6 2 6.6q0 4.7-2.1 6.9c-1.4 1.5-3.2 2.3-5.5 2.3h-2.6v10.6h-2.5v-28.5h5c2.5-0.1 4.4 0.7 5.7 2.1zm-1.9 11.5c0.8-0.9 1.3-2.5 1.3-4.9 0-2.1-0.4-3.6-1.3-4.6-0.8-0.9-2.1-1.4-3.7-1.4h-2.6v12.2h2.5c1.7 0.1 2.9-0.4 3.8-1.3z"/><path class="b" d="m86.4 240.8l-6.3 28.5h-2.7l-6.4-28.5h2.7l5.1 24.6 5.1-24.6z"/><path class="b" d="m107.3 240.8l-0.3 3.1h-5.5v25.4h-2.5v-25.4h-5.7v-3.1z"/><path class="b" d="m113.4 265.2c0.4 0.5 0.5 1.1 0.5 1.9 0 0.7-0.2 1.4-0.5 1.9-0.3 0.5-0.8 0.8-1.3 0.8-0.5 0-0.9-0.3-1.3-0.8-0.3-0.5-0.5-1.2-0.5-1.9 0-0.7 0.2-1.3 0.5-1.9 0.4-0.5 0.8-0.8 1.3-0.8 0.5 0.1 0.9 0.3 1.3 0.8z"/><path class="b" d="m151.9 240.8v25.3h8.1l-0.3 3.1h-10.3v-28.5h2.5z"/><path class="b" d="m178.9 240.8l-0.3 3.1h-5.5v25.4h-2.5v-25.4h-5.6v-3.1z"/><path class="b" d="m199.5 243.8q2.7 3 2.7 11.1c0 5.3-0.9 9-2.7 11.2-1.8 2.2-3.9 3.2-6.5 3.2h-4.6v-28.5h4.1c2.8 0 5.2 1 7 3zm-8.7-0.1v22.7h2.3c1.9 0 3.4-0.8 4.6-2.5q1.8-2.6 1.8-9c0-3.1-0.3-5.4-0.9-7.1-0.6-1.6-1.4-2.7-2.3-3.3-0.9-0.6-2-0.8-3.3-0.8z"/><path class="b" d="m207.8 265.2c0.3 0.5 0.5 1.1 0.5 1.9 0 0.7-0.2 1.4-0.5 1.9-0.4 0.5-0.8 0.8-1.3 0.8-0.5 0-0.9-0.3-1.3-0.8-0.4-0.5-0.5-1.2-0.5-1.9 0-0.7 0.2-1.3 0.5-1.9 0.3-0.5 0.8-0.8 1.3-0.8 0.5 0.1 0.9 0.3 1.3 0.8z"/><path fill-rule="evenodd" class="b" d="m27 120.6h204.4v2.6h-204.4z"/></svg>