<svg version="1.2" xmlns="http://www.w3.org/2000/svg" viewBox="0 0 960 1280" width="960" height="1280"><defs><clipPath clipPathUnits="userSpaceOnUse" id="cp1"><path d="m960 440v400h-960v-400z"/></clipPath></defs><style>.a{fill:#fff}.b{fill:#b71d20}.c{fill:#ffbe0b}.d{fill:#557c39}</style><g clip-path="url(#cp1)"><path fill-rule="evenodd" class="a" d="m960 440v400h-960v-400z"/><path class="b" d="m731.9 635.5c51.6 4.8 71.1 5.2 94.8 5 22.7-0.8 39.7 2.5 58.9-17.8 20.1-20.8 17.7-31.6 5.6-28.3-18 5.4-83.5 27.7-160.7 38.5-3.5 0.4-2.7 2.3 1.4 2.6z"/><path class="c" d="m714.4 629.9c52.9-13.5 185.1-84.5 204.7-97.1 9.7-6.1 20.3-2.5 3.2 25.3-11.6 17.1-19.6 27.1-50.6 36.5-21.4 8.1-100.5 31.1-155.9 37.8-4.1 0.3-5.4-1.2-1.4-2.5z"/><path class="d" d="m719.7 626.1c46.1-16.1 146.4-68.9 180.6-89.9 24.6-15 43.6-26.1 51.1-44.8 15.9-42.9 3.7-60.4-11.4-47-19.3 18.8-110 113.9-226.1 180.8-1.7 1-2 3.3 5.8 0.9z"/><path class="b" d="m0 726.9l11.5-8.3v-98.7l-11.5-8.1h88.8v19.7l-14.8-11.6h-46v41.2h32.8l13.2-9.9v28l-13.2-9.9h-32.8v49.3h47.7l16.4-13.1v21.4z"/><path class="b" d="m148 715.3l4.9 3.3c-2.2 4.6-10.7 10.6-21.6 10.7-11.5 0-19.5-7.5-19.5-17.3v-60.8h-16.4l32.9-23v16.4h24.6v6.6h-24.6v69q0.6 0.6 1.3 1 0.6 0.3 1.4 0.6 0.7 0.2 1.5 0.3 0.8 0.1 1.6 0.1 2 0.1 4-0.3 2-0.4 3.8-1.3 1.9-0.9 3.4-2.2 1.5-1.4 2.7-3.1z"/><path class="b" d="m157.8 726.9l11.6-8.3v-93.7l-11.6-8.2 28-8.2v52.6l9.4-7.5q3.2-2.5 6.7-4.5 3.6-2 7.5-3.3 3.8-1.4 7.8-2.1 4-0.7 8.1-0.7c18.4 0 24.6 8.6 24.6 19.7v55.9l11.6 8.2h-28v-64.1c0-3.6-3.1-9.8-13.1-9.8q-3.3 0-6.5 0.6-3.2 0.6-6.3 1.7-3 1.2-5.8 2.8-2.9 1.7-5.4 3.8l-10.6 7.5v49.3l11.5 8.2z"/><path class="b" d="m355.2 643c29.4 0 49.3 20.6 49.3 42.8 0 22.1-19.9 42.7-49.3 42.7-29.2 0-49.3-20.6-49.3-42.7 0-22.2 20.1-42.8 49.3-42.8zm29.6 42.8c0-17.3-7.7-36.2-29.6-36.2-21.6 0-29.6 19-29.6 36.2 0 17.1 8 36.1 29.6 36.1 21.9 0 29.6-19 29.6-36.1z"/><path class="b" d="m407.8 759.7l11.5-8.2v-90.4l-11.5-8.2 28-8.3v9.9c7.6-10 23-11.5 32.9-11.5 24.1 0 39.4 21.4 39.4 42.8 0 19.8-15.3 42.7-39.4 42.7-9.9 0-24.4-2-32.9-11.5v34.5l9.8 8.2zm28-95.3v42.7c5.3 9 15.2 13.2 26.4 13.2 20.8 0 26.2-19.3 26.2-34.5 0-15.3-5.4-34.6-26.2-34.6-11.2 0-21.1 4-26.4 13.2z"/><path class="b" d="m569 667.7v-18.1c7.5-4.2 22.3-6.6 32.9-6.6 22.7 0 34.5 7 34.5 19.7v55.9l11.5 8.3h-28v-13.2l-31.2 13.2q-1.2 0.4-2.4 0.7-1.2 0.3-2.4 0.5-1.3 0.2-2.5 0.3-1.3 0.1-2.5 0.1c-2.9 0.1-5.7-0.4-8.3-1.4-2.7-1-5.1-2.6-7.1-4.6-2-2-3.6-4.4-4.6-7.1-1-2.6-1.5-5.4-1.4-8.2-0.1-16.1 18.3-29.6 39.4-29.7h23v-14.8c0-7.6-8-13.1-18-13.1q-1.8-0.1-3.6 0.1-1.8 0.2-3.5 0.7-1.8 0.5-3.4 1.3-1.6 0.8-3.1 1.8zm6.6 37.8c0 10.4 6.5 13.2 11.5 13.2 2.3 0 7.3-2.2 9.9-3.3l23-9.9v-21.3h-18.1c-15.9 0-26.3 8.2-26.3 21.3z"/><path class="b" d="m717 643c23.1 0 28 12.1 28 19.7v55.9l11.5 8.3h-28v-64.2c0-4-3.2-9.8-16.4-9.8q-3.3-0.2-6.7 0.2-3.3 0.4-6.5 1.5-3.1 1-6 2.7-3 1.6-5.5 3.8l-9.9 8.2v49.3l11.6 8.3h-39.5l11.5-8.3v-57.5l-11.5-8.2 27.9-8.3v16.5l8.3-7c13.5-10.3 25.2-11.1 31.2-11.1z"/><path class="b" d="m264.7 726.9l11.6-8.3v-57.5l-11.6-8.2 28-8.3v74l11.5 8.3z"/><path fill-rule="evenodd" class="b" d="m283.7 634.8c-5.1 0-9.1-3-9.1-6.6 0-3.7 4-6.6 9.1-6.6 5 0 9 2.9 9 6.6 0 3.6-4 6.6-9 6.6z"/><path class="b" d="m513 726.9l11.6-8.3v-57.5l-11.6-8.2 28-8.3v74l11.5 8.3z"/><path fill-rule="evenodd" class="b" d="m532 634.8c-5 0-9-3-9-6.6 0-3.7 4-6.6 9-6.6 5 0 9 2.9 9 6.6 0 3.6-4 6.6-9 6.6z"/><path class="b" d="m355.3 816.4l8.8 6.8q0.7 0.3 1.3 0.8 0.5 0.5 0.9 1.1 0.4 0.6 0.6 1.3 0.2 0.7 0.2 1.4v7.3l-6.8 4.9h23.2l-6.8-4.9v-7.7c0-3.9-0.5-6.8-4.1-9.5l-9.7-7.7c-3.5-2.6-3.5-2.9-5.5-4.2 0 0 7.9 0.4 11.6 0.3 14.8 0.2 21.7-3.4 23.7-7.7q0.5-1.2 0.9-2.5 0.3-1.2 0.5-2.5 0.2-1.3 0.2-2.6 0-1.4-0.1-2.7c-0.2-4.7-0.6-5.3-1.8-7.6-3.5-6.3-13.8-8.5-25.4-8.5-10.7 0-22.2 3.6-25.7 11.6q-0.3 0.7-0.5 1.4-0.3 0.6-0.5 1.3-0.1 0.7-0.2 1.4-0.2 0.7-0.2 1.4c0 5.6-1.3 13.9 5.6 19.3zm-4.9-27.9c0.1-8.1 6.6-12.3 16.6-12.4 9.6-0.1 16.8 2.1 16.6 11.7v3.5c0 5.2-2.1 9.5-9.5 10.2q-2.5 0.3-5.1 0.4-2.5 0.2-5.1 0.2-2.5 0-5-0.1-2.6-0.1-5.1-0.4c-4.1-0.8-3.5-7.6-3.4-9.9z"/><path class="b" d="m498.7 806.1v29l-6.8 4.9h23.3l-6.8-4.9v-29h17.4v10.6h16.5l-6.8-4.8v-9.7h-27.1v-15.5c0-3.9-1.9-4.8-4.8-4.8h-4.9v-9.7l-16.4 4.8 6.7 4.9v3.9h9.7v16.4h-27.1v9.7l-6.8 4.8h16.5v-10.6z"/><path class="b" d="m619.8 806.1l-6.8-4.9v-9.6h-13.5c0-1 0-2.1 0-3.3-0.2-4.8-0.6-5.4-1.8-7.6-3.5-6.3-13.8-8.5-25.4-8.5-10.7 0-22.2 3.6-25.7 11.6q-0.3 0.7-0.5 1.4-0.3 0.6-0.5 1.3-0.1 0.7-0.3 1.4-0.1 0.7-0.2 1.4c0.1 5.6-1.2 13.9 5.7 19.3l9.8 7.8 8.8 6.8q0.7 0.3 1.3 0.8 0.5 0.5 0.9 1.1 0.4 0.6 0.6 1.3 0.2 0.7 0.1 1.4v7.3l-6.7 4.9h23.2l-6.8-4.9v-7.7c0-3.9-0.5-6.8-4.1-9.5l-9.7-7.7c-3.5-2.5-3.5-2.9-5.5-4.2 0 0 7.9 0.4 11.6 0.3 14.9 0.2 21.7-3.3 23.8-7.7q0.1-0.4 0.3-0.8 0.1-0.3 0.3-0.7 0.1-0.4 0.2-0.8 0.1-0.4 0.2-0.8h4.2v10.6zm-30.8-14.8c-0.1 5.2-2.1 9.5-9.6 10.2q-2.5 0.3-5.1 0.4-2.5 0.2-5.1 0.2-2.5 0-5.1-0.1-2.5-0.1-5-0.4c-4.1-0.8-3.4-7.6-3.3-9.9v-3.2c0.1-8.1 6.6-12.3 16.5-12.4 9.5-0.1 16.8 2.1 16.7 11.7z"/><path class="b" d="m719.7 805.9c0 0 7.8 0.5 11.5 0.4 14.9 0.2 21.8-3.4 23.8-7.7q0.5-1.2 0.8-2.5 0.4-1.3 0.6-2.5 0.1-1.3 0.2-2.7 0-1.3-0.1-2.6c-0.3-4.8-0.6-5.4-1.9-7.6-3.4-6.3-13.7-8.5-25.4-8.5-10.6 0-22.2 3.6-25.6 11.6q-0.3 0.7-0.5 1.4-0.3 0.6-0.5 1.3-0.2 0.7-0.3 1.4-0.1 0.7-0.2 1.4c0.1 5.6-1.3 13.9 5.7 19.3l21.4 17.1-31 2.7v6.7l-6.8 4.9h23.2l-6.7-4.9v-3.8l34.8-2.9v-3.9zm-6.9-17.4c0.1-8.2 6.6-12.4 16.5-12.5 9.6-0.1 16.8 2.1 16.7 11.7v3.5c0 5.2-2.1 9.5-9.6 10.2q-2.5 0.3-5 0.5-2.6 0.1-5.1 0.1-2.6 0-5.1-0.1-2.5-0.1-5.1-0.4c-4-0.8-3.4-7.6-3.3-9.9z"/><path class="b" d="m474.5 840l-6.8-4.9v-8.7h-4.8l-8.7 5.8v-19.6c-0.3-11.4-14.3-12.3-30-10.3l12.6-16.5v-3.9h-14.6v-9.7l-16.4 4.8 6.8 4.9v3.9h13.3l-14.8 19.4q-1 1.2-1.8 2.5-0.8 1.4-1.3 2.9-0.6 1.5-0.9 3-0.3 1.5-0.4 3.1v18.4l-6.9 4.9h23.4l-6.8-4.9v-18.4q0-0.9 0.1-1.8 0.1-0.9 0.4-1.7 0.2-0.9 0.6-1.7 0.5-0.8 1-1.5c0.8-1.1 1.3-1.8 1.6-2.2q0.1-0.2 0.3-0.4 0.2-0.1 0.4-0.2 0.2-0.2 0.4-0.3 0.2-0.1 0.4-0.1c2.5-0.7 22.9-3.4 22.9 6.5v20.8c0 3.9 1.9 5.9 3.9 5.9q0.5 0 1-0.1 0.5 0 1-0.2 0.5-0.1 0.9-0.3 0.5-0.2 0.9-0.4 0.8-0.4 1.5-0.9 0.8-0.5 1.5-0.9 0.7-0.5 1.4-1 0.7-0.5 1.4-1.1v4.9z"/><path class="b" d="m675.9 823.8c0-11-7.9-12.7-14.6-13.4 0.9-0.3 3.2-1.2 4.1-1.5 8.7-3.2 10.9-7 11.1-13.3v-0.2h3.9v10.7h16.4l-6.7-4.9v-9.6h-14.1c-1.4-4.9-6.3-9.5-20.4-9.7v-9.7l-16.5 4.8 6.8 4.9c-9.9 0-20.3 4.2-20.7 13.6-0.4 8.9 6.2 13.3 15 13.5l-9.9 3.5c-5.2 2-8.6 4.2-8.6 12.9v9.7l-6.8 4.9h23.3l-6.8-4.9v-8.8c0-2.8-0.5-4.9 3.9-6.4 0 0 15.8-5.7 16.6-5.9 7.7 0.6 14.3 1.1 14.3 9.7v11.4l-6.7 4.9h23.2l-6.8-4.9zm-26.3-18c-10.8-0.3-14.1-1.9-14.1-10.5 0-8.5 10-9.6 15.4-9.7 13.2-0.3 15.6 3.9 15.5 8.5-0.1 2.8 0 5.7-6.5 8.1-1.2 0.4-6.1 2.2-10.3 3.6z"/></g></svg>